<?xml version="1.0" standalone="no"?>
<!DOCTYPE svg PUBLIC "-//W3C//DTD SVG 20010904//EN"
 "http://www.w3.org/TR/2001/REC-SVG-20010904/DTD/svg10.dtd">
<svg version="1.0" xmlns="http://www.w3.org/2000/svg"
 width="1000.000000pt" height="1000.000000pt" viewBox="0 0 1000.000000 1000.000000"
 preserveAspectRatio="xMidYMid meet">
<metadata>
Created by potrace 1.14, written by Peter Selinger 2001-2017
</metadata>
<g transform="translate(0.000000,1000.000000) scale(0.100000,-0.100000)"
fill="#000000" stroke="none">
<path d="M0 4995 l0 -4425 4990 0 4990 0 0 4425 0 4425 -4990 0 -4990 0 0
-4425z m7575 3564 c203 -22 432 -89 585 -172 271 -146 456 -345 606 -652 68
-141 106 -247 149 -417 54 -213 115 -621 96 -641 -4 -4 -84 -21 -177 -37 -93
-16 -274 -47 -403 -70 -471 -82 -503 -87 -506 -76 -2 6 -6 56 -10 111 -12 199
-57 464 -102 595 -69 206 -197 345 -363 395 -86 26 -271 31 -363 11 -190 -42
-324 -167 -392 -363 -85 -246 -41 -613 101 -839 132 -211 210 -289 834 -837
574 -505 801 -722 952 -912 325 -409 462 -706 529 -1147 32 -210 32 -531 0
-713 -133 -760 -701 -1290 -1473 -1374 -124 -14 -405 -14 -539 -1 -744 75
-1247 461 -1484 1140 -49 140 -100 351 -124 513 -25 166 -44 368 -39 427 l3
45 240 47 c132 26 368 72 524 103 157 30 294 58 306 61 21 5 22 2 29 -108 18
-294 80 -610 151 -780 58 -137 105 -209 190 -295 128 -129 242 -173 445 -173
134 0 219 17 300 61 192 102 291 374 262 716 -31 359 -116 544 -395 862 -113
128 -191 199 -812 746 -646 568 -749 673 -930 945 -217 327 -306 651 -307
1110 0 296 42 545 127 761 78 197 169 335 324 490 256 255 558 396 1001 465
141 22 477 23 665 3z m-5590 -81 c4 -20 26 -135 95 -513 10 -55 57 -307 105
-560 47 -253 101 -545 121 -650 19 -104 46 -246 59 -315 13 -69 40 -210 59
-315 20 -104 94 -505 166 -890 72 -385 144 -770 160 -855 16 -85 45 -243 65
-350 65 -347 83 -442 87 -446 2 -2 18 81 36 184 18 103 48 275 66 382 55 314
126 716 146 835 11 61 35 201 55 313 19 111 51 293 70 405 20 111 63 355 95
542 32 187 75 430 94 540 19 110 55 317 80 460 25 143 57 323 71 400 13 77 45
259 70 405 25 146 54 306 63 355 l17 90 578 3 c482 2 577 0 577 -11 0 -8 -117
-596 -260 -1308 -144 -712 -287 -1427 -320 -1589 -58 -291 -169 -841 -600
-2980 -121 -602 -220 -1098 -220 -1102 0 -5 -286 -8 -635 -8 -349 0 -635 4
-635 8 0 4 -48 244 -106 533 -58 288 -224 1116 -370 1839 -387 1923 -412 2045
-669 3325 -270 1338 -255 1263 -255 1281 0 12 95 14 565 14 l565 0 5 -22z"/>
</g>
</svg>
