<svg xmlns="http://www.w3.org/2000/svg" version="1.1" xmlns:xlink="http://www.w3.org/1999/xlink" xmlns:svgjs="http://svgjs.dev/svgjs" width="1000" height="885" viewBox="0 0 1000 885"><g transform="matrix(1,0,0,1,-0.8549812151833294,0.3582995951416592)"><svg viewBox="0 0 279 247" data-background-color="#ffffff" preserveAspectRatio="xMidYMid meet" height="885" width="1000" xmlns="http://www.w3.org/2000/svg" xmlns:xlink="http://www.w3.org/1999/xlink"><g id="tight-bounds" transform="matrix(1,0,0,1,0.23853975903614355,-0.09999999999999432)"><svg viewBox="0 0 278.5229204819277 247.2" height="247.2" width="278.5229204819277"><g><svg viewBox="0 0 278.5229204819277 247.2" height="247.2" width="278.5229204819277"><g><svg viewBox="0 0 278.5229204819277 247.2" height="247.2" width="278.5229204819277"><g><svg viewBox="0 0 278.5229204819277 247.2" height="247.2" width="278.5229204819277"><g><svg viewBox="0 0 278.5229204819277 247.2" height="247.2" width="278.5229204819277"><rect width="278.5229204819277" height="247.2" x="0" y="0" opacity="1" fill="#1e90ff" data-fill-palette-color="tertiary"></rect><g transform="matrix(1,0,0,1,23.607599999999998,23.607599999999998)"><svg width="231.30772048192773" viewBox="1.1 -40.95 48 41.5" height="199.9848" data-palette-color="#f5efef"><path d="M16.55 0L9.25 0 1.1-40.5 7.65-40.5 13-11.85 18-40.5 24.7-40.5 16.55 0ZM38.95 0.55L38.95 0.55Q35.3 0.55 32.85-0.88 30.4-2.3 29.15-5.05 27.9-7.8 27.75-11.8L27.75-11.8 34.1-13.05Q34.2-10.7 34.67-8.9 35.15-7.1 36.12-6.13 37.1-5.15 38.7-5.15L38.7-5.15Q40.5-5.15 41.25-6.23 42-7.3 42-8.95L42-8.95Q42-11.6 40.8-13.3 39.6-15 37.6-16.7L37.6-16.7 32.5-21.2Q30.35-23.05 29.07-25.33 27.8-27.6 27.8-30.95L27.8-30.95Q27.8-35.75 30.6-38.35 33.4-40.95 38.25-40.95L38.25-40.95Q41.1-40.95 43-40.08 44.9-39.2 46.02-37.65 47.15-36.1 47.7-34.13 48.25-32.15 48.4-29.95L48.4-29.95 42.1-28.85Q42-30.75 41.67-32.25 41.35-33.75 40.52-34.6 39.7-35.45 38.1-35.45L38.1-35.45Q36.45-35.45 35.57-34.38 34.7-33.3 34.7-31.7L34.7-31.7Q34.7-29.65 35.55-28.33 36.4-27 38-25.6L38-25.6 43.05-21.15Q45.55-19.05 47.32-16.23 49.1-13.4 49.1-9.4L49.1-9.4Q49.1-6.5 47.82-4.25 46.55-2 44.27-0.73 42 0.55 38.95 0.55Z" opacity="1" transform="matrix(1,0,0,1,0,0)" fill="#f5efef" class="undefined-text-0" data-fill-palette-color="quaternary" id="text-0"></path></svg></g></svg></g></svg></g></svg></g></svg></g><defs></defs></svg><rect width="278.5229204819277" height="247.2" fill="none" stroke="none" visibility="hidden"></rect></g></svg></g></svg>